<?xml version="1.0" encoding="UTF-8"?>
<svg width="100%" style=" height:auto!important;transform: translateY(-40px);" viewBox="0 0 1440 1002" version="1.1" xmlns="http://www.w3.org/2000/svg" xmlns:xlink="http://www.w3.org/1999/xlink">
    <!-- Generator: Sketch 52.5 (67469) - http://www.bohemiancoding.com/sketch -->
    <title>Group 37</title>
    <desc>Created with Sketch.</desc>
    <defs>
        <linearGradient x1="0%" y1="0%" x2="100%" y2="76.0379028%" id="linearGradient-1">
            <stop stop-color="#4dc3ff" stop-opacity="0.983865489" offset="0%"></stop>
            <stop stop-color="#4dc3ff" offset="100%"></stop>
        </linearGradient>
    </defs>
    <g id="Prototype" stroke="none" stroke-width="1" fill="none" fill-rule="evenodd">
        <g id="First-Draft-Sent-Copy">
            <g id="Group-37" transform="translate(721.000000, 360.000000) scale(-1, 1) translate(-721.000000, -360.000000) translate(-104.000000, -282.000000)">
                <g id="Group-49-Copy">
                    <g id="Pagination" transform="translate(1481.000000, 603.000000)" fill="#FFFFFF">
                        <rect id="Rectangle-2" x="0" y="0" width="15" height="7" rx="3.5"></rect>
                        <rect id="Rectangle-2-Copy" opacity="0.5" x="4" y="17" width="7" height="7" rx="3.5"></rect>
                        <rect id="Rectangle-2-Copy-2" opacity="0.5" x="4" y="34" width="7" height="7" rx="3.5"></rect>
                        <rect id="Rectangle-2-Copy-3" opacity="0.5" x="4" y="51" width="7" height="7" rx="3.5"></rect>
                        <rect id="Rectangle-2-Copy-4" opacity="0.5" x="4" y="68" width="7" height="7" rx="3.5"></rect>
                    </g>
                    <path d="M102,282 L1546,282 L1546,1040.53787 C1525.77888,1088.07571 1503.68902,1126.93594 1479.7304,1157.11856 C1367.50556,1298.49733 1217.33616,1284.57782 1195.02778,1281.34613 C901.539572,1238.83007 798.930556,1040.53787 522.398915,1056.61474 C362.001631,1065.93984 221.868659,1041.96047 102,984.676647 L102,282 Z" id="Bg" fill="url(#linearGradient-1)"></path>
                    <path d="M690.634808,557.369259 C903.061084,578.887663 1014.38684,472.124881 1024.61208,237.080914 L1586.65988,561.576965 L1474.08296,756.53174 C1066.64891,750.735952 805.491516,751.207886 690.610784,757.947542 C518.289686,768.057027 371.995395,525.091652 690.634808,557.369259 Z" id="Rectangle-3" fill="#FFFFFF" opacity="0.100000001" transform="translate(1044.626196, 497.667842) rotate(-30.000000) translate(-1044.626196, -497.667842) "></path>
                    <polygon id="Rectangle-3-Copy" fill="#FFFFFF" opacity="0.049999997" transform="translate(314.303332, 344.585168) rotate(-30.000000) translate(-314.303332, -344.585168) " points="127.295192 244.132712 261.124601 241.864888 617.270774 447.305448 11.335889 444.921217"></polygon>
                    <path d="M1518.46708,621.259058 L1559.67088,677.469785 L1501.67088,777.928732 L1501.67088,777.928732 C1475.70906,796.563798 1439.55614,790.62429 1420.92107,764.66247 C1413.9303,754.923139 1410.1372,743.252892 1410.06596,731.26455 L1409.62605,657.236641 C1409.42831,623.962371 1436.24215,596.827951 1469.51642,596.630219 C1488.83863,596.515396 1507.04356,605.674953 1518.46708,621.259058 Z" id="Rectangle-3-Copy-2" fill="#FFFFFF" opacity="0.100000001" transform="translate(1484.647919, 692.709202) rotate(-30.000000) translate(-1484.647919, -692.709202) "></path>
                    <path d="M1090.48028,608.221073 L1641.42642,603.625982 L1550.42172,761.235532 C1532.49716,792.27879 1499.32768,811.353182 1463.48136,811.231336 L1090.97416,809.965136 C1035.87403,809.777844 991.307474,765.054189 991.314074,709.953737 L991.314283,708.205618 C991.320859,653.307236 1035.5838,608.67893 1090.48028,608.221073 Z" id="Rectangle-3-Copy-3" fill="#FFFFFF" opacity="0.049999997" transform="translate(1316.370245, 707.428949) rotate(-30.000000) translate(-1316.370245, -707.428949) "></path>
                    <path d="M102,892 C192.943076,893.147445 128.679052,944.265514 273.01729,984.74835 C273.01729,984.74835 273.01729,984.74835 273.01729,984.74835 L273.01729,984.74835 C287.146928,988.711317 295.388642,1003.37827 291.425674,1017.50791 C287.630798,1031.03823 273.956948,1039.27437 260.222362,1036.30253 C204.381748,1024.21992 151.640959,1007.03556 102,984.749426" id="Path-2" fill="#FFFFFF" opacity="0.100000001"></path>
                    <path d="M1287,845 C1399.21869,773.32878 1384.64216,913.555744 1545.15176,941.527918 L1545.15176,1040.52426 C1298.23813,957.955567 1212.18754,892.780813 1287,845 Z" id="Path-4" fill="#FFFFFF" opacity="0.200000003"></path>
                </g>
            </g>
        </g>
    </g>
</svg>