<svg xmlns="http://www.w3.org/2000/svg" width="1440" height="1133" viewBox="0 0 1440 1133">
    <defs>
        <linearGradient id="a" x1="0%" y1="0%" y2="76.038%">
            <stop offset="0%" stop-color="#4dc3ff" stop-opacity=".984"/>
            <stop offset="100%" stop-color="#4dc3ff"/>
        </linearGradient>
    </defs>
    <g fill="none" fill-rule="evenodd">
        <g fill="#FFF" transform="matrix(-1 0 0 1 71.901 849.973)">
            <rect width="9.755" height="4.55" rx="2.275"/>
            <rect width="4.552" height="4.55" x="2.601" y="11.051" opacity=".5" rx="2.275"/>
            <rect width="4.552" height="4.55" x="2.601" y="22.101" opacity=".5" rx="2.275"/>
            <rect width="4.552" height="4.55" x="2.601" y="33.152" opacity=".5" rx="2.275"/>
            <rect width="4.552" height="4.55" x="2.601" y="44.203" opacity=".5" rx="2.275"/>
        </g>
        <path fill="url(#a)" d="M82 0h1440c656.777 0 657.342 320.164 1.695 960.492-6.396 58.348-30.294 101.31-71.695 128.888-57.98 38.62-130.874 38.62-175 24.62-210.39-66.75-251.844-291.77-419.722-330.637C719.35 751.43 82 660.43 82 503V0z" transform="matrix(-1 0 0 1 1522 0)"/>
        <path fill="#FFF" d="M289.365 421.532C232.437 548.162 136.151 576.145.51 505.479L.509 927.523l146.34-.012c129.16-231.342 214.307-378.267 255.44-440.774 61.699-93.76-27.53-255.151-112.924-65.205z" opacity=".2"/>
        <path fill="#FFF" d="M968.589 686.225l-74.633-44.773-267.373-.102 342.025 195.598z" opacity=".2"/>
        <path fill="#FFF" d="M1343.554 612.633l95.007-41.925.17-173.078c-19.569-43.388-70.605-62.697-113.993-43.128a86.181 86.181 0 0 0-38.938 35.015l-55.978 95.604c-25.055 42.792-10.677 97.794 32.115 122.85a89.787 89.787 0 0 0 81.617 4.662z" opacity=".2"/>
        <path fill="#FFF" d="M305.812 450.643L-2.353 631.932l.004-98.01a100 100 0 0 1 50.31-86.776l192.262-110.088c31.28-17.911 71.157-7.151 89.182 24.065 18.048 31.256 7.516 71.22-23.593 89.52z" opacity=".2"/>
        <path fill="#FFF" d="M968.67 1037.835c-59.141.746-17.35 33.974-111.214 60.29-9.185 2.575-14.544 12.109-11.969 21.294 2.466 8.796 11.355 14.15 20.283 12.22 36.316-7.855 70.615-19.026 102.9-33.513" opacity=".2"/>
        <path fill="#FFF" d="M1152.608 95.871c126.668-74.169 110.215 70.945 291.392 99.892v102.446c-278.706-85.446-375.837-152.892-291.392-202.338z" opacity=".2"/>
    </g>
</svg>
